<svg xmlns="http://www.w3.org/2000/svg" viewBox="0 0 24 24" width="24" height="24">
  <!-- Snowflake icon for climate control -->
  <path d="M12 2c.5 0 1 .5 1 1v6h6c.5 0 1 .5 1 1s-.5 1-1 1h-6v6c0 .5-.5 1-1 1s-1-.5-1-1v-6H5c-.5 0-1-.5-1-1s.5-1 1-1h6V3c0-.5.5-1 1-1z" fill="#3498db"/>
  <!-- Additional snowflake decorations -->
  <circle cx="12" cy="12" r="3" fill="#2980b9" opacity="0.5"/>
  <path d="M12 6l1.5 2.5h-3z" fill="#5dade2" opacity="0.7"/>
  <path d="M12 18l1.5-2.5h-3z" fill="#5dade2" opacity="0.7"/>
  <path d="M6 12l2.5-1.5v3z" fill="#5dade2" opacity="0.7"/>
  <path d="M18 12l-2.5-1.5v3z" fill="#5dade2" opacity="0.7"/>
</svg>
